#!OML:ASF E:\Style4\Style4.ASF
:FULLY-SPECIFIED
:DEGREES
643
root 0.33447 16.7968 -0.98214 8.64093 -3.85408 2.30941
lowerback 10.6532 1.8877 -1.29567
upperback -0.461487 2.32341 -0.355721
thorax -6.50392 1.17465 -0.0181252
lowerneck 1.93492 -3.62949 -6.48658
upperneck 0.193048 -4.96581 3.40174
head -0.00967189 -2.49928 2.19566
rclavicle 6.26172e-015 -1.35174e-014
rhumerus -15.6027 9.33915 -23.0948
rradius 49.2487
rwrist -17.3535
rhand -10.2126 27.5422
rfingers 7.12502
rthumb 15.7789 -1.83463
lclavicle 6.26172e-015 -1.35174e-014
lhumerus -32.3654 5.99608 41.2997
lradius 53.7261
lwrist 47.3264
lhand 0.160157 23.4046
lfingers 7.12502
lthumb 25.7438 51.6832
rfemur -34.4473 4.44345 14.1944
rtibia 54.8421
rfoot -26.6117 -14.129
rtoes -16.2438
lfemur -32.5273 -0.0403463 -22.7987
ltibia 53.9201
lfoot -28.838 9.85626
ltoes -17.7429
644
root 0.340024 16.8038 -0.978139 8.62989 -3.94196 2.35543
lowerback 10.5895 1.82651 -1.26519
upperback -0.482456 2.24369 -0.404999
thorax -6.48582 1.13389 -0.0722912
lowerneck 1.95751 -3.54986 -6.55391
upperneck 0.298738 -4.86335 3.4301
head 0.0166817 -2.44955 2.21655
rclavicle -2.88238e-015 -7.55382e-015
rhumerus -14.7 10.9443 -21.8663
rradius 49.3227
rwrist -15.2252
rhand -10.3859 27.81
rfingers 7.12502
rthumb 15.612 -1.57997
lclavicle -2.88238e-015 -7.55382e-015
lhumerus -32.5847 6.11158 41.2423
lradius 53.7512
lwrist 47.1591
lhand 0.0729196 23.6424
lfingers 7.12502
lthumb 25.6602 51.9331
rfemur -34.3862 4.53007 14.1024
rtibia 54.7326
rfoot -26.6323 -14.0655
rtoes -16.0691
lfemur -32.4242 0.0303734 -22.8812
ltibia 53.7646
lfoot -28.7794 9.82747
ltoes -17.5223
645
root 0.344568 16.8128 -0.973529 8.5949 -3.99778 2.44951
lowerback 10.5425 1.77396 -1.24488
upperback -0.494284 2.1708 -0.502035
thorax -6.46628 1.09592 -0.172387
lowerneck 1.96918 -3.49223 -6.51752
upperneck 0.412383 -4.78745 3.43245
head 0.0454777 -2.41292 2.20975
rclavicle -1.96797e-014 4.77083e-015
rhumerus -13.9234 12.3739 -20.5792
rradius 49.3657
rwrist -13.1651
rhand -10.2667 28.1951
rfingers 7.12502
rthumb 15.7268 -1.18589
lclavicle -1.96797e-014 4.77083e-015
lhumerus -32.7583 6.14326 41.1665
lradius 53.8059
lwrist 47.1185
lhand 0.102237 23.6841
lfingers 7.12502
lthumb 25.6883 51.9708
rfemur -34.2816 4.57964 13.9712
rtibia 54.6231
rfoot -26.5861 -14.0794
rtoes -16.1118
lfemur -32.2797 0.0594522 -23.01
ltibia 53.5919
lfoot -28.7375 9.86729
ltoes -17.4728
646
root 0.350176 16.8199 -0.970749 8.56283 -4.03948 2.52625
lowerback 10.4948 1.75941 -1.17153
upperback -0.496378 2.15363 -0.623489
thorax -6.43377 1.08301 -0.336591
lowerneck 1.98701 -3.48357 -6.46834
upperneck 0.504691 -4.77692 3.49902
head 0.0713575 -2.40896 2.22201
rclavicle -3.25013e-014 4.37326e-015
rhumerus -13.3215 13.7492 -19.2579
rradius 49.517
rwrist -11.6064
rhand -10.0203 28.5038
rfingers 7.12502
rthumb 15.9641 -0.858304
lclavicle -3.25013e-014 4.37326e-015
lhumerus -32.8452 6.01101 41.1388
lradius 53.9318
lwrist 47.1352
lhand 0.243221 23.5271
lfingers 7.12502
lthumb 25.8233 51.7941
rfemur -34.1922 4.61528 13.859
rtibia 54.5315
rfoot -26.5159 -14.1088
rtoes -16.058
lfemur -32.1412 0.0809591 -23.1202
ltibia 53.4208
lfoot -28.6915 9.93496
ltoes -17.7969
647
root 0.353902 16.8266 -0.969028 8.56338 -4.06603 2.6599
lowerback 10.4135 1.72623 -1.21284
upperback -0.500321 2.09966 -0.719284
thorax -6.38946 1.05642 -0.402584
lowerneck 2.00689 -3.4608 -6.45792
upperneck 0.58919 -4.74843 3.5268
head 0.0934344 -2.39583 2.22874
rclavicle -1.5704e-014 5.36719e-015
rhumerus -12.6245 15.3022 -17.8882
rradius 49.7267
rwrist -10.6909
rhand -10.0693 28.6603
rfingers 7.12502
rthumb 15.9169 -0.705575
lclavicle -1.5704e-014 5.36719e-015
lhumerus -32.9188 6.06285 41.1456
lradius 53.9495
lwrist 46.8804
lhand 0.282737 23.326
lfingers 7.12502
lthumb 25.8612 51.5875
rfemur -34.1586 4.65945 13.6848
rtibia 54.4499
rfoot -26.4759 -14.1333
rtoes -15.999
lfemur -32.035 0.104624 -23.2863
ltibia 53.2359
lfoot -28.6356 9.91833
ltoes -17.8908
648
root 0.357346 16.8325 -0.967273 8.55474 -4.07579 2.77409
lowerback 10.4005 1.67607 -1.23101
upperback -0.533493 2.02496 -0.807108
thorax -6.4143 1.019 -0.472944
lowerneck 2.05231 -3.43636 -6.42038
upperneck 0.659723 -4.71855 3.51458
head 0.104961 -2.38185 2.21815
rclavicle 3.47873e-016 1.09332e-014
rhumerus -11.8655 16.8813 -16.5298
rradius 49.8143
rwrist -10.0995
rhand -10.1124 28.5757
rfingers 7.12502
rthumb 15.8754 -0.793477
lclavicle 3.47873e-016 1.09332e-014
lhumerus -32.9732 6.23749 41.1439
lradius 53.8571
lwrist 46.4055
lhand 0.245799 23.0663
lfingers 7.12502
lthumb 25.8258 51.333
rfemur -34.1062 4.67316 13.5424
rtibia 54.3725
rfoot -26.5245 -14.0885
rtoes -16.0294
lfemur -31.921 0.125071 -23.4287
ltibia 53.0612
lfoot -28.5879 9.91377
ltoes -17.7933
649
root 0.360262 16.8388 -0.962083 8.49793 -4.15993 2.83377
lowerback 10.4708 1.65231 -1.19686
upperback -0.585616 1.98952 -0.902166
thorax -6.5046 0.998802 -0.589683
lowerneck 2.07403 -3.41003 -6.33701
upperneck 0.792116 -4.68436 3.51014
head 0.13881 -2.36607 2.20058
rclavicle 1.33683e-014 -7.35503e-015
rhumerus -11.1885 18.5102 -15.2034
rradius 49.9748
rwrist -9.61124
rhand -10.2378 28.3566
rfingers 7.12502
rthumb 15.7546 -1.02221
lclavicle 1.33683e-014 -7.35503e-015
lhumerus -33.1048 6.1548 41.1225
lradius 53.857
lwrist 46.3114
lhand 0.216585 23.0264
lfingers 7.12502
lthumb 25.7978 51.2972
rfemur -33.9826 4.76239 13.4579
rtibia 54.2726
rfoot -26.5397 -14.0613
rtoes -16.1697
lfemur -31.7391 0.201339 -23.5134
ltibia 52.8835
lfoot -28.5654 9.87905
ltoes -17.6007
